<?xml version="1.0" encoding="utf-8"?>
<!-- Generator: Adobe Illustrator 27.0.0, SVG Export Plug-In . SVG Version: 6.00 Build 0)  -->
<svg version="1.1" id="Layer_1" xmlns="http://www.w3.org/2000/svg" xmlns:xlink="http://www.w3.org/1999/xlink" x="0px" y="0px"
	 viewBox="0 0 1366 768" style="enable-background:new 0 0 1366 768;" xml:space="preserve">
<style type="text/css">
	.st0{fill:#C7CDD1;}
	.st1{fill:#58AEE7;}
</style>
<g>
	<g>
		<path d="M403.46,395.87c-11.6,0-22.45-0.35-32.56-1.04c-10.11-0.69-19.48-1.73-28.1-3.12l3.74-10.77
			c10.54,1.67,20.72,2.94,30.54,3.81c9.82,0.87,19.38,1.31,28.67,1.31c13.41,0,23.38-0.87,29.9-2.61c6.52-1.74,9.77-4.39,9.77-7.95
			c0-4.52-6.23-7.82-18.69-9.92l-35.36-5.97c-13.89-2.35-24.55-5.17-31.98-8.48c-7.43-3.31-11.14-7.41-11.14-12.32
			c0-6.61,5.37-11.73,16.1-15.36c10.73-3.63,25.92-5.44,45.56-5.44c13.7,0,25.82,0.75,36.36,2.24c10.54,1.49,20.7,3.93,30.47,7.31
			l-20.12,7.57c-8.43-2.56-16.31-4.42-23.64-5.57c-7.33-1.16-14.97-1.73-22.92-1.73c-9.87,0-17.51,0.88-22.92,2.64
			c-5.41,1.76-8.12,4.37-8.12,7.81c0,2.45,1.77,4.45,5.32,6c3.54,1.55,8.77,2.93,15.67,4.13l29.9,5.23
			c15.14,2.63,26.64,5.6,34.49,8.91c7.86,3.31,11.79,7.56,11.79,12.75c0,6.86-6.01,12.01-18.04,15.44
			C446.12,394.16,427.9,395.87,403.46,395.87z"/>
		<path d="M571.8,397.25c-63.43,0-95.15-13.01-95.15-39.04c0-12.34,8-21.9,24-28.67c16-6.77,38.57-10.16,67.7-10.16
			c14.09,0,26.35,0.83,36.79,2.48c10.44,1.65,18.06,4.01,22.85,7.07l-21.27,7.84c-4.31-2.42-9.8-4.28-16.46-5.6
			c-6.66-1.31-13.87-1.97-21.63-1.97c-18.49,0-33.32,2.47-44.48,7.41c-11.16,4.94-16.74,11.97-16.74,21.07
			c0,19.84,23.09,29.76,69.28,29.76c13.89,0,27.6-1.07,41.11-3.2l6.61,9.39C607.73,396.05,590.2,397.25,571.8,397.25z"/>
		<path class="st0" d="M677.11,349.13c-2.66,0-5.16-0.13-7.48-0.4c-2.32-0.27-4.47-0.66-6.45-1.19l0.86-4.13
			c2.42,0.64,4.76,1.13,7.01,1.46c2.26,0.33,4.45,0.5,6.59,0.5c3.08,0,5.37-0.33,6.87-1c1.5-0.67,2.24-1.68,2.24-3.04
			c0-1.73-1.43-3-4.29-3.8l-8.12-2.29c-3.19-0.9-5.64-1.98-7.34-3.25c-1.71-1.27-2.56-2.84-2.56-4.72c0-2.53,1.23-4.49,3.7-5.88
			c2.46-1.39,5.95-2.08,10.46-2.08c3.15,0,5.93,0.29,8.35,0.86c2.42,0.57,4.75,1.5,7,2.8l-4.62,2.9c-1.94-0.98-3.75-1.69-5.43-2.13
			c-1.68-0.44-3.44-0.66-5.26-0.66c-2.27,0-4.02,0.34-5.27,1.01c-1.24,0.67-1.87,1.67-1.87,2.99c0,0.94,0.41,1.71,1.22,2.3
			c0.81,0.59,2.01,1.12,3.6,1.58l6.87,2c3.48,1.01,6.12,2.14,7.92,3.41s2.71,2.89,2.71,4.88c0,2.63-1.38,4.6-4.14,5.91
			C686.91,348.47,682.72,349.13,677.11,349.13z"/>
		<path class="st0" d="M703.81,348.72v-29h6.6v29H703.81z M709.62,339.73v-3.88h7.99c3.61,0,6.34-0.55,8.19-1.66
			c1.85-1.11,2.77-2.73,2.77-4.87c0-1.88-0.92-3.3-2.77-4.27c-1.85-0.97-4.58-1.45-8.19-1.45h-7.86v-3.88h7.86
			c5.88,0,10.33,0.81,13.35,2.43c3.03,1.62,4.54,4.01,4.54,7.17c0,3.42-1.51,6.01-4.54,7.77c-3.03,1.76-7.48,2.64-13.35,2.64H709.62
			z"/>
		<path class="st0" d="M757.95,349.13c-11.53,0-17.3-4.9-17.3-14.71c0-10.08,5.77-15.11,17.3-15.11c11.53,0,17.3,5.04,17.3,15.11
			C775.25,344.23,769.48,349.13,757.95,349.13z M757.95,345.37c6.91,0,10.36-3.65,10.36-10.95c0-7.57-3.46-11.36-10.36-11.36
			c-6.91,0-10.36,3.79-10.36,11.36C747.58,341.72,751.04,345.37,757.95,345.37z"/>
		<path class="st0" d="M782.38,348.72v-29h6.6v29H782.38z M788.52,337.69v-3.88h9.97c2.62,0,4.66-0.43,6.12-1.29
			c1.46-0.86,2.2-2.06,2.2-3.62c0-1.7-0.73-3.01-2.2-3.93c-1.46-0.92-3.5-1.38-6.12-1.38h-9.84l-0.79-3.88h10.63
			c4.86,0,8.62,0.76,11.27,2.29c2.65,1.53,3.98,3.69,3.98,6.49c0,2.91-1.33,5.17-3.98,6.78c-2.65,1.61-6.41,2.41-11.27,2.41H788.52z
			 M807.53,348.72l-10.5-13.64h7.26l11.16,13.64H807.53z"/>
		<path class="st0" d="M820.01,323.6v-3.88h34.33v3.88H820.01z M833.87,348.72v-29h6.6v29H833.87z"/>
		<path class="st0" d="M686.61,393.32c-14.57,0-21.85-4.98-21.85-14.95c0-4.72,1.84-8.38,5.51-10.98c3.67-2.59,8.86-3.89,15.55-3.89
			c3.23,0,6.05,0.32,8.45,0.95c2.4,0.63,4.15,1.54,5.25,2.71l-4.89,3c-0.99-0.93-2.25-1.64-3.78-2.14c-1.53-0.5-3.19-0.76-4.97-0.76
			c-4.25,0-7.65,0.95-10.22,2.84c-2.56,1.89-3.85,4.58-3.85,8.07c0,7.6,5.3,11.4,15.91,11.4c3.19,0,6.34-0.41,9.44-1.23l1.52,3.59
			C694.87,392.86,690.84,393.32,686.61,393.32z"/>
		<path class="st0" d="M703.02,392.92l13.53-29h9.57l13.53,29h-6.93l-11.09-25.49h-0.59l-11.09,25.49H703.02z M709.29,385.85v-3.88
			h23.77v3.88H709.29z"/>
		<path class="st0" d="M745.77,392.92v-29h6.6v29H745.77z M751.91,381.89v-3.88h9.97c2.62,0,4.66-0.43,6.12-1.29
			c1.46-0.86,2.2-2.06,2.2-3.62c0-1.7-0.73-3.01-2.2-3.93c-1.46-0.92-3.5-1.38-6.12-1.38h-9.84l-0.79-3.88h10.63
			c4.86,0,8.62,0.76,11.27,2.29c2.65,1.53,3.98,3.69,3.98,6.49c0,2.91-1.33,5.17-3.98,6.78c-2.65,1.61-6.41,2.41-11.27,2.41H751.91z
			 M770.92,392.92l-10.5-13.64h7.26l11.16,13.64H770.92z"/>
		<path class="st1" d="M470.16,259.95l-11.11-2.77l-10.31-2.57l-0.48-0.45c-0.24,0.03-0.48,0.05-0.74,0.05
			c-0.87,0-1.61-0.19-2.25-0.5c-1.3-0.07-2.31-0.56-3.05-1.29c-0.56,0.22-1.19,0.35-1.9,0.35c-1.83,0-3.14-0.81-3.92-1.97
			c-0.36-0.16-0.71-0.35-1.05-0.59c-1.48-0.31-2.51-1.22-3.1-2.38c-1.12-0.84-2.25-1.69-3.32-2.59c-0.27-0.18-0.51-0.39-0.73-0.62
			c-0.73-0.65-1.42-1.34-2.06-2.08c-1-1.17-1.8-2.41-2.43-3.71c-2.09-1.01-2.92-3.44-2.5-5.6c-0.9-1.99-0.25-3.86,1.09-5.11
			c0.29-1.61,0.72-4.32,1.15-7.5c1.24-9.2,2.46-22.24,0.22-23.42c-3.46-1.82-15.12,9.63-46.88,57.39l-50.8,14l33.87,36.4H650.7
			L470.16,259.95z"/>
		<g>
			<path class="st1" d="M700.95,289.2c0,0,183.65-28.8,226.85,0c43.2,28.8,27,16.2,27,16.2L915,318l0.2,38.94l81,2.24
				c0,0,57.8-1.63,55.8,26.09l0.05-43.37c0,0,11.95-33.9-11.05-45.9S821.9,233.4,700.95,289.2z"/>
		</g>
		<path class="st1" d="M755.94,242.4C695.88,197.8,567,158,593.62,168.32c26.62,10.32,162.32,101.72,162.32,101.72L763,275
			l22.68-4.96"/>
		<path class="st1" d="M402.55,220.84c0,0,28.15-81.88,202.8-66.36c0,0-155.7,20.19-198.03,66.36"/>
	</g>
	<path class="st1" d="M431.87,202.49c0,0-7.78,49.48,27.18,61l-64.31,4.4l32.16-65.39"/>
</g>
</svg>
